# xmcd
#
# Track frame offsets: 
#        150
#        17095
#        27807
#        46029
#        69797
#        86659
#        103084
#        118079
#        133197
#        152469
#        170616
#        188765
#        201517
#        215613
#        231360
#        240134
#        251376
#        261719
#        271168
#        285717
#        293890
#        299953
#        308489
#
# Disc length: 4236 seconds
#
# Revision: 0
# Processed by: cddbd v1.4PL0 Copyright (c) Steve Scherf et al.
# Submitted via: ExactAudioCopy v0.90b4
#
DISCID=55108a17
DTITLE=Bobbe Seymour - Master's Collection
DYEAR=2001
DGENRE=Country
TTITLE0=For the Good Times
TTITLE1=Frauline
TTITLE2=The Nearness of You
TTITLE3=Take Me As I Am
TTITLE4=I Won't Mention It Again
TTITLE5=April Fools
TTITLE6=I Just Destroyed the World
TTITLE7=Lily Dale
TTITLE8=Sweet Dreams
TTITLE9=Don't You Ever Get Tired
TTITLE10=I Love You So Much
TTITLE11=I'm So Lonesome I Could Cry
TTITLE12=All I Ever Need Is You
TTITLE13=Faded Love
TTITLE14=Blue Bell
TTITLE15=I'll See You in My Dreams
TTITLE16=Rose Time
TTITLE17=Walk Right Back
TTITLE18=Maiden's Prayer
TTITLE19=So Round, So Firm
TTITLE20=Nine Pound Hammer
TTITLE21=Sweet Temptation
TTITLE22=Old Kentucky Home
EXTD=with Jimmy Day, Bob Saxton, Tommy White and Buck Reid\n
EXTT0=
EXTT1=
EXTT2=
EXTT3=
EXTT4=
EXTT5=
EXTT6=
EXTT7=
EXTT8=
EXTT9=
EXTT10=
EXTT11=
EXTT12=
EXTT13=
EXTT14=
EXTT15=
EXTT16=
EXTT17=
EXTT18=
EXTT19=
EXTT20=
EXTT21=
EXTT22=
PLAYORDER=
